<svg width="84" height="75" viewBox="0 0 84 75" fill="none" xmlns="http://www.w3.org/2000/svg">
<g clip-path="url(#clip0_1767_2290)">
<path d="M8.80608 6.77832V12.321H20.3426V18.2998H8.80608V31.3414H1.96094V0.582031H20.7743V6.77882H8.80657L8.80608 6.77832Z" fill="#FFFFFF"/>
<path d="M22.1953 3.21721C22.1953 1.13386 23.8963 0 26.2078 0C28.5194 0 30.2634 1.13386 30.2634 3.21721C30.2634 5.30055 28.6048 6.39573 26.2078 6.39573C23.8109 6.39573 22.1953 5.26489 22.1953 3.21721Z" fill="#FFFFFF"/>
<path d="M29.4872 8.875H22.7969V31.2563H29.4872V8.875Z" fill="#FFFFFF"/>
<path d="M42.3835 14.5195V29.0331C42.3835 32.181 43.3632 32.9019 45.413 32.9019C46.2149 32.9019 46.7292 32.6914 47.219 32.5085V38.4471C46.4605 38.8164 45.2352 39.165 43.8096 39.165C38.4184 39.165 35.7635 35.5414 35.7635 29.4918V14.5195H31.5859V8.87534H35.7635V2.5625H42.3835V8.87534H47.1917V14.5195H42.3835Z" fill="#FFFFFF"/>
<path d="M21.2294 65.5614C19.7653 66.3837 17.5075 66.6711 15.6047 66.6711C6.69374 66.6706 0 59.8177 0 50.7031C0 41.5885 6.73233 34.7773 15.6853 34.7773C17.5461 34.7773 19.7653 35.0647 21.2294 35.8032L21.1908 42.4943C19.7653 41.7121 18.0623 41.3444 16.0824 41.3444C10.8127 41.3444 6.97163 45.2011 6.97163 50.7026C6.97163 56.2041 10.8127 60.0207 16.0824 60.0207C18.0628 60.0207 19.7653 59.6931 21.1908 58.9546L21.2294 65.5603V65.5614Z" fill="#FFFFFF"/>
<path d="M67.9296 56.5059H52.992C53.6127 59.5312 56.0923 61.2162 59.7707 61.2162C63.0053 61.2162 65.3725 60.431 66.9685 59.3655V64.9845C64.972 66.4083 61.7672 66.7273 58.8394 66.7273C51.3486 66.7273 46.6484 62.233 46.6484 54.8024C46.6484 47.8611 51.2583 43.0137 57.908 43.0137C63.9835 43.0137 68.2832 47.0171 68.2832 53.6901C68.2832 54.8928 68.1064 55.7047 67.9296 56.5054V56.5059ZM52.9021 52.7557H62.1648C62.0314 50.0424 60.4789 48.6619 57.8651 48.6619C55.4246 48.6619 53.3461 50.0856 52.9021 52.7557Z" fill="#FFFFFF"/>
<path d="M78.8632 42.2901V43.6395H83.997V49.3138H78.8632V65.5254C78.8632 70.4225 76.1644 74.9138 70.4147 74.9138C69.1752 74.9138 68.109 74.8068 67.3594 74.5074V68.5145C67.8458 68.727 68.3791 68.8139 69.0418 68.8139C71.387 68.8139 71.9599 67.7062 71.9599 65.3546V49.3138H68.4231V43.6395H71.9599V42.1193C71.9599 36.7705 75.1915 33.6035 80.8983 33.6035C82.4039 33.6035 83.1575 33.7166 83.997 34.0165V39.4069C83.4637 39.2361 83.1106 39.1683 82.2276 39.1683C80.0158 39.1683 78.8632 40.2801 78.8632 42.2906V42.2901Z" fill="#FFFFFF"/>
<path d="M38.1525 63.1351C37.5113 62.9794 36.891 63.0547 36.2888 63.3185C35.6642 63.5928 35.148 64.0288 34.645 64.486C34.1483 64.9371 33.6472 65.3827 33.1471 65.8299C32.9859 65.974 32.8023 66.0228 32.5859 66.0233C32.5859 66.0233 32.5859 66.0243 32.5859 66.0248H33.9285C33.9319 66.0218 33.9358 66.0192 33.9397 66.0162C33.93 66.0147 33.9207 66.0137 33.9109 66.0122C33.8972 65.9926 33.8836 65.973 33.8699 65.9534C34.5824 65.3441 35.2725 64.704 36.0144 64.1353C36.6082 63.6802 37.3047 63.529 38.047 63.7123C38.2189 63.755 38.3713 63.6566 38.4104 63.4953C38.4489 63.3346 38.343 63.1818 38.1525 63.1351Z" fill="#FFFFFF"/>
<path d="M37.1455 41.0212C33.5847 41.0212 30.8459 42.3138 29.6117 44.1762V34.0156H22.7656V66.0239H28.5686C28.5686 66.0239 28.5686 66.0229 28.5686 66.0224H28.5588C28.4221 66.0224 28.3288 65.9812 28.2428 65.8727C27.5815 65.0388 27.2328 64.0948 27.3525 63.0127C27.4648 62.0009 27.962 61.1931 28.7112 60.5445C29.2289 60.0964 29.8154 59.7734 30.4518 59.5403C30.5797 59.4936 30.6798 59.5021 30.7961 59.582C31.7552 60.2456 32.8062 60.6058 33.9701 60.638C35.2374 60.6726 36.3934 60.3385 37.4419 59.6131C37.5948 59.5076 37.7213 59.49 37.8888 59.5558C38.933 59.9663 39.8423 60.5621 40.4411 61.5643C41.3133 63.0242 41.0535 64.6484 40.0079 65.9044C39.9571 65.9656 39.8555 66.0139 39.7769 66.0139H39.7515C39.7515 66.0169 39.7505 66.0199 39.751 66.0229H45.53V48.4634C45.53 44.7036 41.9844 41.0202 37.1455 41.0202V41.0212ZM37.1865 58.6742C36.408 59.685 35.3761 60.1783 34.4565 60.1994C32.2226 60.1949 30.6032 58.7546 30.3175 56.8064C30.2886 56.6089 30.2877 56.4075 30.2725 56.208C30.2642 56.0955 30.3155 56.0548 30.4229 56.0548C32.8976 56.0563 35.3717 56.0568 37.8463 56.0538C37.987 56.0538 38.0016 56.1271 38.0026 56.2427C38.0104 57.1535 37.7316 57.9663 37.1865 58.6742ZM39.5732 47.0849C39.3193 47.8209 39.0409 48.5483 38.7674 49.2773C38.4754 50.0554 38.3059 50.8638 38.238 51.6907C38.153 52.7276 38.1027 53.7675 38.0373 54.8059C38.0344 54.8521 38.0241 54.8983 38.0178 54.9445C38.0011 55.0676 38.0246 55.2545 37.9587 55.2987C37.86 55.3645 37.6984 55.3359 37.5636 55.3359C35.2237 55.3374 32.8839 55.3369 30.5441 55.3369C30.2745 55.3369 30.2828 55.3364 30.2711 55.0691C30.1841 53.0576 30.0166 51.0587 29.3739 49.1371C29.1986 48.6131 28.9876 48.1017 28.8015 47.5817C28.6618 47.1919 28.5344 46.7925 28.6106 46.3705C28.7097 45.8234 29.0735 45.4803 29.5302 45.2462C31.2195 44.3786 33.3708 44.7047 34.5786 46.6272C35.1348 47.5134 35.4459 48.4936 35.6149 49.5214C35.7141 50.1248 35.7531 50.7387 35.8191 51.348C35.8239 51.3933 35.8308 51.4385 35.8371 51.4837C35.8572 51.4837 35.8772 51.4847 35.8972 51.4852C35.9172 51.2978 35.948 51.1104 35.9553 50.9225C36.0115 49.4913 35.8728 48.0932 35.2696 46.7779C34.9424 46.0646 34.4848 45.4567 33.8782 44.9709C33.8484 44.9468 33.823 44.9172 33.7732 44.8684C33.8694 44.8152 33.9486 44.7629 34.034 44.7257C34.6596 44.4525 35.3107 44.2927 35.9895 44.2344C36.9931 44.1485 37.9406 44.3289 38.8246 44.8272C39.2455 45.0649 39.5591 45.406 39.6641 45.9038C39.7486 46.3037 39.7032 46.7066 39.5728 47.0854L39.5732 47.0849Z" fill="#FFFFFF"/>
<path d="M15.3767 70.2038C15.4084 70.1496 15.4211 70.1094 15.4592 70.1094H15.4783C15.51 70.1094 15.5291 70.1496 15.5549 70.2038L17.6315 74.8061C17.6569 74.8659 17.6315 74.9131 17.568 74.9131H17.1998C17.1358 74.9131 17.1109 74.8865 17.0728 74.8061L16.5776 73.6672H14.3613L13.8656 74.8061C13.8275 74.8865 13.8021 74.9131 13.7323 74.9131H13.3641C13.3069 74.9131 13.281 74.8659 13.3069 74.8061L15.3772 70.2038H15.3767ZM16.4057 73.211L15.4719 71.0272H15.4656L14.5323 73.211H16.4057Z" fill="#FFFFFF"/>
<path d="M19.1719 70.3297C19.1719 70.2433 19.1973 70.2227 19.2735 70.2227H19.5719C19.6485 70.2227 19.6734 70.2493 19.6734 70.3297V72.949C19.6734 74.0613 20.2068 74.53 20.9686 74.53C21.7305 74.53 22.2643 74.0613 22.2643 72.949V70.3297C22.2643 70.2493 22.2897 70.2227 22.3659 70.2227H22.6711C22.7473 70.2227 22.7664 70.2493 22.7664 70.3297V72.9822C22.7664 74.3155 22.004 74.9992 20.9691 74.9992C19.9342 74.9992 19.1719 74.3155 19.1719 72.9822V70.3297Z" fill="#FFFFFF"/>
<path d="M24.9029 74.1096C24.9215 74.0634 24.9352 74.0428 24.9581 74.0428C24.9718 74.0428 24.9855 74.0493 25.0084 74.0694C25.3024 74.3643 25.6839 74.5185 26.0282 74.5185C26.4506 74.5185 26.8916 74.3171 26.8916 73.6203C26.8916 73.0647 26.5473 72.8838 25.9451 72.7627C25.4445 72.6628 24.8609 72.4417 24.8609 71.5505C24.8609 71.0346 25.1276 70.1504 26.0184 70.1504C26.4916 70.1504 26.7993 70.3518 27.1485 70.6603C27.1988 70.7005 27.1895 70.7407 27.1715 70.8075L27.084 71.015C27.0655 71.0622 27.0474 71.0888 27.0245 71.0888C27.0152 71.0888 27.0015 71.0818 26.9834 71.0622C26.6894 70.7733 26.3861 70.6191 26.0643 70.6191C25.3659 70.6191 25.2145 71.1888 25.2145 71.5369C25.2145 72.086 25.6419 72.2267 26.1473 72.3207C26.7397 72.4347 27.2452 72.703 27.2452 73.6007C27.2452 74.3176 26.8643 74.9878 26.0741 74.9878C25.5872 74.9878 25.1828 74.8265 24.8341 74.4718C24.7882 74.4316 24.7882 74.398 24.8155 74.3246L24.9024 74.1101L24.9029 74.1096Z" fill="#FFFFFF"/>
<path d="M30.0916 70.7049H28.8638C28.7969 70.7049 28.7812 70.6783 28.7812 70.5979V70.3297C28.7812 70.2493 28.8018 70.2227 28.8638 70.2227H31.7301C31.797 70.2227 31.8073 70.2493 31.8073 70.3297V70.5979C31.8073 70.6783 31.7921 70.7049 31.7301 70.7049H30.4974V74.8048C30.4974 74.8852 30.4823 74.9118 30.4203 74.9118H30.1736C30.1067 74.9118 30.0911 74.8852 30.0911 74.8048V70.7049H30.0916Z" fill="#FFFFFF"/>
<path d="M33.3521 70.3297C33.3521 70.2493 33.3784 70.2227 33.4585 70.2227H35.036C35.792 70.2227 36.6472 70.5442 36.6472 71.6293C36.6472 72.4271 36.2228 72.8486 35.6064 73.0164L36.8528 74.7847C36.9055 74.8721 36.8528 74.9123 36.7732 74.9123H36.4616C36.382 74.9123 36.3287 74.8721 36.2823 74.8053L35.0624 73.0772H33.8761V74.8053C33.8761 74.8917 33.8492 74.9123 33.7696 74.9123H33.458C33.3784 74.9123 33.3516 74.8988 33.3516 74.8053V70.3302L33.3521 70.3297ZM33.8761 72.621H35.0028C35.7915 72.621 36.1363 72.2387 36.1363 71.6288C36.1363 70.9591 35.6855 70.6778 35.0028 70.6778H33.8761V72.621Z" fill="#FFFFFF"/>
<path d="M40.2048 70.2038C40.2366 70.1496 40.2493 70.1094 40.2873 70.1094H40.3064C40.3381 70.1094 40.3572 70.1496 40.3831 70.2038L42.4597 74.8061C42.4851 74.8659 42.4597 74.9131 42.3962 74.9131H42.0279C41.964 74.9131 41.939 74.8865 41.901 74.8061L41.4057 73.6672H39.1895L38.6938 74.8061C38.6557 74.8865 38.6303 74.9131 38.5604 74.9131H38.1922C38.1351 74.9131 38.1092 74.8659 38.1351 74.8061L40.2053 70.2038H40.2048ZM41.2338 73.211L40.3 71.0272H40.2937L39.3604 73.211H41.2338Z" fill="#FFFFFF"/>
<path d="M43.9922 70.3297C43.9922 70.2493 44.0176 70.2227 44.0938 70.2227H44.3927C44.4688 70.2227 44.4942 70.2493 44.4942 70.3297V74.4496H46.1816C46.2578 74.4496 46.2768 74.4763 46.2768 74.5576V74.8053C46.2768 74.8857 46.2573 74.9123 46.1816 74.9123H44.0938C44.0176 74.9123 43.9922 74.8857 43.9922 74.8053V70.3302V70.3297Z" fill="#FFFFFF"/>
<path d="M48.1719 74.9118C48.0957 74.9118 48.0703 74.8852 48.0703 74.8048V70.3297C48.0703 70.2493 48.0957 70.2227 48.1719 70.2227H48.4771C48.5533 70.2227 48.5724 70.2493 48.5724 70.3297V74.8048C48.5724 74.8852 48.5528 74.9118 48.4771 74.9118H48.1719Z" fill="#FFFFFF"/>
<path d="M52.3135 70.2038C52.3448 70.1496 52.3575 70.1094 52.3965 70.1094H52.4151C52.4473 70.1094 52.4659 70.1496 52.4913 70.2038L54.5684 74.8061C54.5937 74.8659 54.5683 74.9131 54.5049 74.9131H54.1366C54.0731 74.9131 54.0477 74.8865 54.0096 74.8061L53.5139 73.6672H51.2977L50.8024 74.8061C50.7644 74.8865 50.739 74.9131 50.6691 74.9131H50.3009C50.2442 74.9131 50.2188 74.8659 50.2442 74.8061L52.3145 70.2038H52.3135ZM53.342 73.211L52.4092 71.0272H52.4024L51.4686 73.211H53.342Z" fill="#FFFFFF"/>
</g>
<defs>
<clipPath id="clip0_1767_2290">
<rect width="84" height="75" fill="white"/>
</clipPath>
</defs>
</svg>
